<?xml version="1.0" encoding="UTF-8" standalone="no"?>
<!-- Created with Inkscape (http://www.inkscape.org/) -->

<svg
   width="808mm"
   height="713mm"
   viewBox="0 0 808 713"
   version="1.1"
   id="svg1"
   inkscape:version="1.3.2 (091e20e, 2023-11-25, custom)"
   sodipodi:docname="Foco solo.svg"
   xmlns:inkscape="http://www.inkscape.org/namespaces/inkscape"
   xmlns:sodipodi="http://sodipodi.sourceforge.net/DTD/sodipodi-0.dtd"
   xmlns="http://www.w3.org/2000/svg"
   xmlns:svg="http://www.w3.org/2000/svg">
  <sodipodi:namedview
     id="namedview1"
     pagecolor="#ffffff"
     bordercolor="#666666"
     borderopacity="1.0"
     inkscape:showpageshadow="2"
     inkscape:pageopacity="0.0"
     inkscape:pagecheckerboard="0"
     inkscape:deskcolor="#d1d1d1"
     inkscape:document-units="mm"
     inkscape:zoom="0.1062546"
     inkscape:cx="611.73823"
     inkscape:cy="672.91206"
     inkscape:window-width="1920"
     inkscape:window-height="1009"
     inkscape:window-x="1912"
     inkscape:window-y="-8"
     inkscape:window-maximized="1"
     inkscape:current-layer="layer1" />
  <defs
     id="defs1" />
  <g
     inkscape:label="Capa 1"
     inkscape:groupmode="layer"
     id="layer1">
    <path
       style="fill:#ffd42a;stroke-width:1.32735"
       d="m 370.18511,708.39073 c -15.09851,-3.90626 -26.67712,-15.59473 -33.1266,-33.44075 -2.52959,-6.99924 -3.05462,-11.48932 -3.5599,-30.44567 l -0.59312,-22.23576 h 82.68335 82.68302 l -0.44667,24.3208 c -0.44587,24.23889 -0.46015,24.3515 -4.62041,33.3265 -5.02668,10.84582 -14.2394,20.45661 -24.5169,25.57564 l -7.3626,3.66719 -43.13496,0.24625 c -23.72406,0.13088 -45.32655,-0.32168 -48.00523,-1.01487 z M 190.89519,612.6497 c -5.49413,-1.75888 -12.19445,-9.61376 -13.53763,-15.87072 -2.35459,-10.96961 -0.46587,-14.11057 24.2952,-40.41668 18.67366,-19.83841 23.73354,-24.47661 28.22489,-25.87328 14.97055,-4.65543 29.28027,10.56148 24.8644,26.4407 -1.31002,4.70852 -5.69786,10.19765 -23.05894,28.84267 -11.79284,12.66504 -22.91005,23.85007 -24.70504,24.8551 -4.65261,2.60587 -11.55028,3.47307 -16.08288,2.02221 z m 436.5509,-0.65224 c -3.77839,-1.42987 -10.95811,-8.1768 -27.23996,-25.59658 -18.00204,-19.2605 -22.40895,-24.73535 -23.72235,-29.4705 -4.37367,-15.76814 10.00997,-31.06107 24.86868,-26.44055 4.4914,1.39652 9.55117,6.03494 28.2247,25.87307 24.76182,26.30625 26.64995,29.44715 24.29517,40.41705 -1.41489,6.592 -8.12447,14.13571 -14.1565,15.91677 -5.7032,1.68388 -6.02071,1.66525 -12.26974,-0.69882 z M 329.66624,571.298 c -2.34255,-10.67648 -11.06237,-28.46409 -17.93649,-36.58954 -3.33125,-3.93739 -9.88216,-10.40267 -14.55761,-14.36712 -36.21888,-30.71047 -61.34461,-74.26088 -70.45143,-122.1125 -1.72966,-9.08837 -2.28752,-18.64126 -2.29956,-39.36744 -0.0127,-23.69282 0.38676,-29.27395 2.97675,-41.57122 5.91911,-28.09458 16.88675,-54.53911 32.01515,-77.19296 9.46646,-14.17543 30.23924,-36.22251 43.85819,-46.54884 21.06194,-15.96958 47.04742,-28.156 72.17177,-33.84631 15.98129,-3.61959 48.02942,-5.01874 63.78172,-2.78461 60.23114,8.54236 110.34505,43.39362 141.7287,98.56373 37.0467,65.12476 35.14096,152.2425 -4.72202,215.87638 -10.82636,17.28232 -21.44032,29.77044 -39.74422,46.76184 -20.22433,18.77422 -29.95623,33.29609 -35.2276,52.56622 l -2.13281,7.79639 H 415.18467 331.24236 Z M 529.93026,370.23965 c 2.3236,-1.51786 5.44311,-5.29745 6.93202,-8.39916 2.35114,-4.89768 2.61201,-7.20162 1.98326,-17.51634 -1.85774,-30.47149 -14.53184,-59.49729 -35.25011,-80.72813 -20.59635,-21.10591 -45.45313,-32.97532 -73.20313,-34.9553 -10.21226,-0.72839 -12.26153,-0.48066 -16.93091,2.0512 -6.9764,3.78225 -11.21762,11.11173 -11.21762,19.38555 0,12.45058 9.5027,21.89351 22.03204,21.89351 8.92457,0 24.80204,4.58223 34.23445,9.87999 11.57417,6.50052 25.12178,21.36619 30.95889,33.97072 4.95465,10.69867 8.4925,25.30892 8.53034,35.22632 0.0714,18.30206 17.37234,28.70152 31.93077,19.19164 z m -432.12302,8.89832 c -2.351482,-1.23131 -5.827994,-4.40216 -7.725619,-7.04619 -4.517469,-6.29377 -4.915452,-18.47022 -0.795932,-24.33435 6.609358,-9.40767 6.500017,-9.38215 42.180771,-9.81024 31.58898,-0.37935 32.56891,-0.30837 38.1858,2.73668 10.63171,5.76452 14.15396,19.48969 7.80367,30.40909 -5.49757,9.45314 -9.10027,10.28631 -44.47108,10.28514 -26.01059,-9.6e-4 -31.57949,-0.35571 -35.177908,-2.24013 z m 563.72138,-0.77691 c -7.11894,-3.83461 -10.77652,-10.2206 -10.77652,-18.81488 0,-8.59424 3.65758,-14.98022 10.77652,-18.81483 5.45297,-2.93745 7.12831,-3.07876 36.47278,-3.07876 34.43661,0 36.80567,0.51171 43.12919,9.32239 2.82097,3.93052 3.46828,6.27624 3.46828,12.5712 0,6.29501 -0.64659,8.64059 -3.46828,12.57118 -6.32352,8.81031 -8.69258,9.32256 -43.12919,9.32256 -29.34447,0 -31.01981,-0.1405 -36.47278,-3.07886 z M 226.98048,187.2599 c -3.15485,-1.56138 -13.4608,-11.49037 -26.59939,-25.62658 -17.31209,-18.62643 -21.71059,-24.13322 -22.80485,-28.55093 -3.9835,-16.08082 9.66572,-30.83499 24.61787,-26.61066 4.57421,1.29223 9.11679,5.39025 27.68044,24.97072 23.6003,24.8931 27.26867,30.54395 25.59643,39.42925 -1.32548,7.03971 -5.69064,13.14257 -11.56282,16.16354 -6.75292,3.47401 -10.26794,3.52065 -16.92768,0.22466 z m 360.23967,-0.25492 c -5.82386,-3.06363 -10.14659,-9.14829 -11.46104,-16.13313 -1.67273,-8.88528 1.99619,-14.53609 25.59645,-39.42923 18.59807,-19.61689 23.10091,-23.6769 27.70036,-24.97643 14.87942,-4.20399 28.65765,10.45385 24.69788,26.27429 -1.21029,4.83833 -5.05977,9.69319 -22.90479,28.89301 -26.765,28.79708 -31.6814,31.65617 -43.62886,25.37149 z M 410.19597,109.19482 c -6.16633,-2.05085 -11.0653,-6.78489 -13.21664,-12.771485 -1.77631,-4.942305 -2.03814,-11.004942 -1.71066,-39.568125 0.42675,-37.103396 0.42675,-37.09938 9.25319,-44.103282 5.52917,-4.3870969 16.97558,-3.9553849 22.92188,0.864401 8.29041,6.719931 8.77231,9.237837 8.77231,45.833906 0,31.184434 -0.13726,32.964816 -2.89714,38.759937 -4.29365,9.002198 -14.50263,13.851838 -23.12363,10.984558 z"
       id="path6488" />
  </g>
</svg>
